<svg data-v-fde0c5aa="" xmlns="http://www.w3.org/2000/svg" viewBox="0 0 300 300" class="font"><!----><defs data-v-fde0c5aa=""><linearGradient data-v-fde0c5aa="" gradientTransform="rotate(25)" id="bcee40e9-87e1-40cd-8e30-067066815a8d" x1="0%" y1="0%" x2="100%" y2="0%"><stop data-v-fde0c5aa="" offset="0%" stop-color="#EB4C00" stop-opacity="1"></stop><stop data-v-fde0c5aa="" offset="100%" stop-color="#F2A900" stop-opacity="1"></stop></linearGradient></defs><rect data-v-fde0c5aa="" fill="url(#bcee40e9-87e1-40cd-8e30-067066815a8d)" x="0" y="0" width="300px" height="300px" class="logo-background-square"></rect><defs data-v-fde0c5aa=""><!----></defs><g data-v-fde0c5aa="" id="ceb49dfb-600f-470e-a7f6-4b5679e6613f" fill="#ffffff" transform="matrix(22.703819352621437,0,0,22.703819352621437,53.16820807934413,21.609906270246512)"><path d="M0.49 10.50L4.62 10.50L4.62 10.09C3.18 10.01 3.14 9.98 3.14 9.20L3.14 6.52L3.93 6.52C4.58 6.52 5.21 6.47 5.73 6.34C6.80 6.06 8.04 5.31 8.04 3.56C8.04 2.49 7.57 1.76 6.94 1.37C6.27 0.95 5.38 0.81 4.40 0.81L0.49 0.81L0.49 1.22C1.72 1.30 1.75 1.33 1.75 2.11L1.75 9.20C1.75 9.98 1.72 10.01 0.49 10.09ZM3.14 5.49L3.14 1.82C3.14 1.43 3.29 1.30 4.20 1.30C5.64 1.30 6.52 2.13 6.52 3.65C6.52 5.40 5.38 6.03 4.17 6.03C3.35 6.03 3.14 6.01 3.14 5.49Z"></path></g><!----><!----></svg>